<svg xmlns="http://www.w3.org/2000/svg" style="position:absolute;width:0;height:0;overflow:hidden" aria-hidden="true">
<defs>
<symbol id="icon-globe" viewBox="0 0 24 24" fill="none" stroke="currentColor" stroke-width="2" stroke-linecap="round" stroke-linejoin="round"><circle cx="12" cy="12" r="10"></circle><path d="M2 12h20"></path><path d="M12 2a15.3 15.3 0 0 1 4 10 15.3 15.3 0 0 1-4 10 15.3 15.3 0 0 1-4-10 15.3 15.3 0 0 1 4-10z"></path></symbol>
<symbol id="icon-mobile" viewBox="0 0 24 24" fill="none" stroke="currentColor" stroke-width="2" stroke-linecap="round" stroke-linejoin="round"><rect x="5" y="2" width="14" height="20" rx="2" ry="2"></rect><path d="M12 18h.01"></path></symbol>
<symbol id="icon-cart" viewBox="0 0 24 24" fill="none" stroke="currentColor" stroke-width="2" stroke-linecap="round" stroke-linejoin="round"><circle cx="9" cy="21" r="1"></circle><circle cx="20" cy="21" r="1"></circle><path d="M1 1h4l2.68 13.39a2 2 0 0 0 2 1.61h9.72a2 2 0 0 0 2-1.61L23 6H6"></path></symbol>
<symbol id="icon-megaphone" viewBox="0 0 24 24" fill="none" stroke="currentColor" stroke-width="2" stroke-linecap="round" stroke-linejoin="round"><path d="m3 11 18-5v12L3 13v-2z"></path><path d="M11.6 16.8a3 3 0 1 1-5.8-1.6"></path></symbol>
<symbol id="icon-palette" viewBox="0 0 24 24" fill="none" stroke="currentColor" stroke-width="2" stroke-linecap="round" stroke-linejoin="round"><path d="M12 22a1 1 0 0 1 0-20 10 9 0 0 1 10 9 5 5 0 0 1-6 5 21 21 0 0 1-4-1 1 1 0 0 1-6-3 5 5 0 0 1 6-5 21 21 0 0 1 4-1 1 1 0 0 1 0 20Z"></path><path d="M16 8h.01"></path><path d="M8 12h.01"></path></symbol>
<symbol id="icon-clapper" viewBox="0 0 24 24" fill="none" stroke="currentColor" stroke-width="2" stroke-linecap="round" stroke-linejoin="round"><path d="M4 11v9a2 2 0 0 0 2 2h12a2 2 0 0 0 2-2v-9"></path><path d="M4 11h16"></path><path d="M12 4v3"></path><path d="M8 4v3"></path><path d="M16 4v3"></path><path d="M2 8h20"></path></symbol>
<symbol id="icon-monitor" viewBox="0 0 24 24" fill="none" stroke="currentColor" stroke-width="2" stroke-linecap="round" stroke-linejoin="round"><rect width="20" height="14" x="2" y="3" rx="2"></rect><path d="M8 21h8"></path><path d="M12 17v4"></path></symbol>
<symbol id="icon-package" viewBox="0 0 24 24" fill="none" stroke="currentColor" stroke-width="2" stroke-linecap="round" stroke-linejoin="round"><path d="m7.5 4.27 9 5.15"></path><path d="M21 8V5a2 2 0 0 0-1-1.73l-7-4a2 2 0 0 0-2 0l-7 4A2 2 0 0 0 3 5v14a2 2 0 0 0 1 1.73l7 4a2 2 0 0 0 2 0l7-4A2 2 0 0 0 21 18v-3"></path><path d="M12 22V12"></path><path d="m3.3 7 8.7 5 8.7-5"></path></symbol>
<symbol id="icon-chef" viewBox="0 0 24 24" fill="none" stroke="currentColor" stroke-width="2" stroke-linecap="round" stroke-linejoin="round"><path d="M6 13.87A4 4 0 0 1 7.41 6a5.11 5.11 0 0 1 9.18 0A4 4 0 0 1 18 13.87V21H6Z"></path><path d="M6 17h12"></path></symbol>
<symbol id="icon-truck" viewBox="0 0 24 24" fill="none" stroke="currentColor" stroke-width="2" stroke-linecap="round" stroke-linejoin="round"><path d="M14 18V6a2 2 0 0 0-2-2H4a2 2 0 0 0-2 2v11a1 1 0 0 0 1 1h2"></path><path d="M15 18H9"></path><path d="M19 18h2a1 1 0 0 0 1-1v-3.65a1 1 0 0 0-.22-.624l-3.48-4.35A1 1 0 0 0 17.52 8H14"></path><circle cx="17" cy="18" r="2"></circle><circle cx="7" cy="18" r="2"></circle></symbol>
<symbol id="icon-store" viewBox="0 0 24 24" fill="none" stroke="currentColor" stroke-width="2" stroke-linecap="round" stroke-linejoin="round"><path d="m2 7 4.41-4.41A2 2 0 0 1 7.83 2h8.34a2 2 0 0 1 1.42.59L22 7"></path><path d="M4 12v8a2 2 0 0 0 2 2h12a2 2 0 0 0 2-2v-8"></path><path d="M15 22v-4a2 2 0 0 0-2-2h-2a2 2 0 0 0-2 2v4"></path><path d="M2 7h20"></path><path d="M6 7v12a2 2 0 0 0 2 2h1"></path></symbol>
<symbol id="icon-utensils" viewBox="0 0 24 24" fill="none" stroke="currentColor" stroke-width="2" stroke-linecap="round" stroke-linejoin="round"><path d="M3 2v7c0 1.1.9 2 2 2h0a2 2 0 0 0 2-2V2"></path><path d="M7 2v20"></path><path d="M21 15V2v0a5 5 0 0 0-5 5v6c0 1.1.9 2 2 2h0a2 2 0 0 0 2-2v-3"></path></symbol>
<symbol id="icon-bag" viewBox="0 0 24 24" fill="none" stroke="currentColor" stroke-width="2" stroke-linecap="round" stroke-linejoin="round"><path d="M6 2 3 6v14a2 2 0 0 0 2 2h14a2 2 0 0 0 2-2V6l-3-4Z"></path><path d="M3 6h18"></path><path d="M16 10a4 4 0 0 1-8 0"></path></symbol>
<symbol id="icon-chart" viewBox="0 0 24 24" fill="none" stroke="currentColor" stroke-width="2" stroke-linecap="round" stroke-linejoin="round"><path d="M3 3v18h18"></path><path d="M18 17V9"></path><path d="M13 17V5"></path><path d="M8 17v-3"></path></symbol>
<symbol id="icon-medal" viewBox="0 0 24 24" fill="none" stroke="currentColor" stroke-width="2" stroke-linecap="round" stroke-linejoin="round"><path d="M7.21 15 2.66 7.14a2 2 0 0 1 .13-2.2L4.4 2.8A2 2 0 0 1 6 2h12a2 2 0 0 1 1.6.8l1.6 2.14a2 2 0 0 1 .14 2.2L16.79 15"></path><path d="M11 12 5.12 2.2"></path><path d="m13 12 5.88-9.8"></path><circle cx="12" cy="17" r="5"></circle></symbol>
<symbol id="icon-trophy" viewBox="0 0 24 24" fill="none" stroke="currentColor" stroke-width="2" stroke-linecap="round" stroke-linejoin="round"><path d="M6 9H4.5a2.5 2.5 0 0 1 0-5H6"></path><path d="M18 9h1.5a2.5 2.5 0 0 0 0-5H18"></path><path d="M4 22h16"></path><path d="M10 14.66V17c0 .55-.47.98-.97 1.21C7.85 18.75 9 20.24 9 22"></path><path d="M14 14.66V17c0 .55.47.98.97 1.21C16.15 18.75 15 20.24 15 22"></path><path d="M18 2H6v7a6 6 0 0 0 12 0V2Z"></path></symbol>
<symbol id="icon-gem" viewBox="0 0 24 24" fill="none" stroke="currentColor" stroke-width="2" stroke-linecap="round" stroke-linejoin="round"><path d="M6 3h12l4 6-10 13L2 9Z"></path><path d="M11 3 8 9l4 13 4-13-3-6"></path><path d="M2 9h20"></path></symbol>
<symbol id="icon-check" viewBox="0 0 24 24" fill="none" stroke="currentColor" stroke-width="2.5" stroke-linecap="round" stroke-linejoin="round"><path d="M20 6 9 17l-5-5"></path></symbol>
<symbol id="icon-bolt" viewBox="0 0 24 24" fill="none" stroke="currentColor" stroke-width="2" stroke-linecap="round" stroke-linejoin="round"><path d="M13 2 3 14h9l-1 8 10-12h-9l1-8z"></path></symbol>
<symbol id="icon-link" viewBox="0 0 24 24" fill="none" stroke="currentColor" stroke-width="2" stroke-linecap="round" stroke-linejoin="round"><path d="M10 13a5 5 0 0 0 7.54.54l3-3a5 5 0 0 0-7.07-7.07l-1.72 1.71"></path><path d="M14 11a5 5 0 0 0-7.54-.54l-3 3a5 5 0 0 0 7.07 7.07l1.71-1.71"></path></symbol>
<symbol id="icon-target" viewBox="0 0 24 24" fill="none" stroke="currentColor" stroke-width="2" stroke-linecap="round" stroke-linejoin="round"><circle cx="12" cy="12" r="10"></circle><circle cx="12" cy="12" r="6"></circle><circle cx="12" cy="12" r="2"></circle></symbol>
<symbol id="icon-mail" viewBox="0 0 24 24" fill="none" stroke="currentColor" stroke-width="2" stroke-linecap="round" stroke-linejoin="round"><rect width="20" height="16" x="2" y="4" rx="2"></rect><path d="m22 7-8.97 5.7a1.94 1.94 0 0 1-2.06 0L2 7"></path></symbol>
<symbol id="icon-arrow-up-right" viewBox="0 0 24 24" fill="none" stroke="currentColor" stroke-width="2.5" stroke-linecap="round" stroke-linejoin="round"><path d="M7 17 17 7"></path><path d="M7 7h10v10"></path></symbol>
<symbol id="icon-hex" viewBox="0 0 24 24" fill="none" stroke="currentColor" stroke-width="2" stroke-linecap="round" stroke-linejoin="round"><path d="M21 16V8a2 2 0 0 0-1-1.73l-7-4a2 2 0 0 0-2 0l-7 4A2 2 0 0 0 3 8v8a2 2 0 0 0 1 1.73l7 4a2 2 0 0 0 2 0l7-4A2 2 0 0 0 21 16z"></path></symbol>
<symbol id="icon-menu" viewBox="0 0 24 24" fill="none" stroke="currentColor" stroke-width="2" stroke-linecap="round" stroke-linejoin="round"><path d="M4 6h16M4 12h16M4 18h16"></path></symbol>
<symbol id="icon-x" viewBox="0 0 24 24" fill="none" stroke="currentColor" stroke-width="2" stroke-linecap="round" stroke-linejoin="round"><path d="M18 6 6 18M6 6l12 12"></path></symbol>
<symbol id="icon-headset" viewBox="0 0 24 24" fill="none" stroke="currentColor" stroke-width="2" stroke-linecap="round" stroke-linejoin="round"><path d="M3 11a9 9 0 0 1 9-9 9 9 0 0 1 9 9v2"></path><path d="M21 19a2 2 0 0 1-2 2h-1v-4h2a2 2 0 0 1 2 2z"></path><path d="M3 19a2 2 0 0 0 2 2h1v-4H3a2 2 0 0 0-2 2z"></path></symbol>
<symbol id="icon-handshake" viewBox="0 0 24 24" fill="none" stroke="currentColor" stroke-width="2" stroke-linecap="round" stroke-linejoin="round"><path d="m11 17 2 2a2 2 0 1 0 2-2l-3-3"></path><path d="M6 17h4l3-3"></path><path d="M4 11V9a2 2 0 0 1 2-2h8a2 2 0 0 1 2 2v2"></path><path d="m2 15 2 2a2 2 0 1 0 2-2l-3-3"></path><path d="m7.5 4.5 3 3"></path><path d="M7 2 4 5"></path></symbol>
</defs>
</svg>